<mxfile host="Electron" agent="Mozilla/5.0 (X11; Linux x86_64) AppleWebKit/537.36 (KHTML, like Gecko) draw.io/27.0.9 Chrome/134.0.6998.205 Electron/35.4.0 Safari/537.36" version="27.0.9">
  <diagram name="Page-1" id="XnKkE4l7KJbQGaBJSRFF">
    <mxGraphModel dx="3995" dy="1751" grid="1" gridSize="10" guides="1" tooltips="1" connect="1" arrows="1" fold="1" page="1" pageScale="1" pageWidth="1500" pageHeight="1100" math="0" shadow="0">
      <root>
        <mxCell id="0" />
        <mxCell id="1" parent="0" />
        <mxCell id="Fx0Ukl5ThcwgrXelVzSv-1" value="" style="rounded=0;whiteSpace=wrap;html=1;strokeColor=none;" parent="1" vertex="1">
          <mxGeometry x="-190" y="270" width="1610" height="600" as="geometry" />
        </mxCell>
        <mxCell id="Fx0Ukl5ThcwgrXelVzSv-3" value="&lt;div style=&quot;line-height: 80%; font-size: 130px;&quot;&gt;&lt;b&gt;REPOSITORYS&lt;/b&gt;&lt;/div&gt;&lt;div style=&quot;line-height: 80%; font-size: 130px;&quot;&gt;&lt;b&gt;&lt;br&gt;&lt;/b&gt;&lt;/div&gt;" style="text;html=1;align=left;verticalAlign=middle;whiteSpace=wrap;rounded=0;" parent="1" vertex="1">
          <mxGeometry x="177" y="525" width="903" height="290" as="geometry" />
        </mxCell>
        <mxCell id="Fx0Ukl5ThcwgrXelVzSv-5" value="&lt;h2&gt;&lt;font color=&quot;#ff8000&quot; style=&quot;font-size: 130px;&quot;&gt;RISE&lt;/font&gt;&lt;/h2&gt;" style="text;html=1;align=center;verticalAlign=middle;whiteSpace=wrap;rounded=0;" parent="1" vertex="1">
          <mxGeometry x="140" y="425" width="380" height="150" as="geometry" />
        </mxCell>
      </root>
    </mxGraphModel>
  </diagram>
</mxfile>
